<svg width="32" height="32" viewBox="0 0 32 32" fill="none" xmlns="http://www.w3.org/2000/svg">
<path d="M3.33331 5.66667C3.33331 5.40145 3.43867 5.1471 3.62621 4.95956C3.81374 4.77202 4.0681 4.66667 4.33331 4.66667H5.07731C6.34398 4.66667 7.10398 5.51867 7.53731 6.31067C7.82665 6.83867 8.03598 7.45067 8.19998 8.00533L8.33331 8H24.9973C26.104 8 26.904 9.05867 26.6 10.124L24.1626 18.6693C23.9441 19.4358 23.4818 20.1102 22.8457 20.5904C22.2096 21.0706 21.4343 21.3305 20.6373 21.3307H12.7066C11.9033 21.3307 11.1222 21.0669 10.4833 20.5798C9.84451 20.0927 9.38331 19.4093 9.17065 18.6347L8.15731 14.9387L6.47731 9.27467L6.47598 9.264C6.26798 8.508 6.07331 7.8 5.78265 7.272C5.50398 6.75867 5.27998 6.66667 5.07865 6.66667H4.33331C4.0681 6.66667 3.81374 6.56131 3.62621 6.37377C3.43867 6.18624 3.33331 5.93188 3.33331 5.66667ZM10.0973 14.4533L11.0986 18.1053C11.2986 18.828 11.956 19.3307 12.7066 19.3307H20.6373C20.9996 19.3307 21.352 19.2126 21.6412 18.9944C21.9304 18.7762 22.1406 18.4697 22.24 18.1213L24.556 10H8.77998L10.0786 14.3827L10.0973 14.4533ZM14.6666 25.3333C14.6666 26.0406 14.3857 26.7189 13.8856 27.219C13.3855 27.719 12.7072 28 12 28C11.2927 28 10.6145 27.719 10.1144 27.219C9.61426 26.7189 9.33331 26.0406 9.33331 25.3333C9.33331 24.6261 9.61426 23.9478 10.1144 23.4477C10.6145 22.9476 11.2927 22.6667 12 22.6667C12.7072 22.6667 13.3855 22.9476 13.8856 23.4477C14.3857 23.9478 14.6666 24.6261 14.6666 25.3333ZM12.6666 25.3333C12.6666 25.1565 12.5964 24.987 12.4714 24.8619C12.3464 24.7369 12.1768 24.6667 12 24.6667C11.8232 24.6667 11.6536 24.7369 11.5286 24.8619C11.4036 24.987 11.3333 25.1565 11.3333 25.3333C11.3333 25.5101 11.4036 25.6797 11.5286 25.8047C11.6536 25.9298 11.8232 26 12 26C12.1768 26 12.3464 25.9298 12.4714 25.8047C12.5964 25.6797 12.6666 25.5101 12.6666 25.3333ZM24 25.3333C24 26.0406 23.719 26.7189 23.2189 27.219C22.7188 27.719 22.0406 28 21.3333 28C20.6261 28 19.9478 27.719 19.4477 27.219C18.9476 26.7189 18.6666 26.0406 18.6666 25.3333C18.6666 24.6261 18.9476 23.9478 19.4477 23.4477C19.9478 22.9476 20.6261 22.6667 21.3333 22.6667C22.0406 22.6667 22.7188 22.9476 23.2189 23.4477C23.719 23.9478 24 24.6261 24 25.3333ZM22 25.3333C22 25.1565 21.9297 24.987 21.8047 24.8619C21.6797 24.7369 21.5101 24.6667 21.3333 24.6667C21.1565 24.6667 20.9869 24.7369 20.8619 24.8619C20.7369 24.987 20.6666 25.1565 20.6666 25.3333C20.6666 25.5101 20.7369 25.6797 20.8619 25.8047C20.9869 25.9298 21.1565 26 21.3333 26C21.5101 26 21.6797 25.9298 21.8047 25.8047C21.9297 25.6797 22 25.5101 22 25.3333Z" fill="#B12B27"/>
</svg>
