<svg width="100" height="21" viewBox="0 0 100 21" fill="none" xmlns="http://www.w3.org/2000/svg">
<path d="M6.10416 16.3653L7.13749 11.9378L3.70166 8.96118L8.22749 8.56951L9.99999 4.39368L11.7725 8.56868L16.2975 8.96034L12.8617 11.937L13.8958 16.3645L9.99999 14.0145L6.10416 16.3653Z" fill="#FFA500"/>
<path d="M26.1042 16.3653L27.1375 11.9378L23.7017 8.96118L28.2275 8.56951L30 4.39368L31.7725 8.56868L36.2975 8.96034L32.8617 11.937L33.8958 16.3645L30 14.0145L26.1042 16.3653Z" fill="#FFA500"/>
<path d="M46.1042 16.3653L47.1375 11.9378L43.7017 8.96118L48.2275 8.56951L50 4.39368L51.7725 8.56868L56.2975 8.96034L52.8617 11.937L53.8958 16.3645L50 14.0145L46.1042 16.3653Z" fill="#FFA500"/>
<path d="M66.1042 16.3653L67.1375 11.9378L63.7017 8.96118L68.2275 8.56951L70 4.39368L71.7725 8.56868L76.2975 8.96034L72.8617 11.937L73.8958 16.3645L70 14.0145L66.1042 16.3653Z" fill="#FFA500"/>
<path d="M86.8604 15.325L87.6244 12.0515L87.693 11.7576L87.4649 11.5599L84.9226 9.35739L88.2706 9.06765L88.5702 9.04172L88.6877 8.76487L90 5.67324L91.3123 8.76407L91.4298 9.04088L91.7294 9.06681L95.0766 9.35654L92.5343 11.5591L92.3061 11.7568L92.3748 12.0507L93.1394 15.3243L90.2583 13.5864L89.9999 13.4306L89.7417 13.5864L86.8604 15.325Z" stroke="black"/>
<path d="M86.8604 15.325L87.6244 12.0515L87.693 11.7576L87.4649 11.5599L84.9226 9.35739L88.2706 9.06765L88.5702 9.04172L88.6877 8.76487L90 5.67324L91.3123 8.76407L91.4298 9.04088L91.7294 9.06681L95.0766 9.35654L92.5343 11.5591L92.3061 11.7568L92.3748 12.0507L93.1394 15.3243L90.2583 13.5864L89.9999 13.4306L89.7417 13.5864L86.8604 15.325Z" stroke="black" stroke-opacity="0.2"/>
</svg>
