<svg width="100" height="21" viewBox="0 0 100 21" fill="none" xmlns="http://www.w3.org/2000/svg">
<path d="M6.10416 16.3654L7.13749 11.9379L3.70166 8.96124L8.22749 8.56957L9.99999 4.39374L11.7725 8.56874L16.2975 8.9604L12.8617 11.9371L13.8958 16.3646L9.99999 14.0146L6.10416 16.3654Z" fill="#FFA500"/>
<path d="M26.1042 16.3654L27.1375 11.9379L23.7017 8.96124L28.2275 8.56957L30 4.39374L31.7725 8.56874L36.2975 8.9604L32.8617 11.9371L33.8958 16.3646L30 14.0146L26.1042 16.3654Z" fill="#FFA500"/>
<path d="M46.1042 16.3654L47.1375 11.9379L43.7017 8.96124L48.2275 8.56957L50 4.39374L51.7725 8.56874L56.2975 8.9604L52.8617 11.9371L53.8958 16.3646L50 14.0146L46.1042 16.3654Z" fill="#FFA500"/>
<path d="M66.1042 16.3654L67.1375 11.9379L63.7017 8.96124L68.2275 8.56957L70 4.39374L71.7725 8.56874L76.2975 8.9604L72.8617 11.9371L73.8958 16.3646L70 14.0146L66.1042 16.3654Z" fill="#FFA500"/>
<path d="M86.8604 15.3251L87.6244 12.0515L87.693 11.7576L87.4649 11.56L84.9226 9.35745L88.2706 9.06771L88.5702 9.04178L88.6877 8.76493L90 5.6733L91.3123 8.76413L91.4298 9.04094L91.7294 9.06688L95.0766 9.3566L92.5343 11.5592L92.3061 11.7568L92.3748 12.0508L93.1394 15.3244L90.2583 13.5864L89.9999 13.4306L89.7417 13.5865L86.8604 15.3251Z" stroke="black"/>
<path d="M86.8604 15.3251L87.6244 12.0515L87.693 11.7576L87.4649 11.56L84.9226 9.35745L88.2706 9.06771L88.5702 9.04178L88.6877 8.76493L90 5.6733L91.3123 8.76413L91.4298 9.04094L91.7294 9.06688L95.0766 9.3566L92.5343 11.5592L92.3061 11.7568L92.3748 12.0508L93.1394 15.3244L90.2583 13.5864L89.9999 13.4306L89.7417 13.5865L86.8604 15.3251Z" stroke="black" stroke-opacity="0.2"/>
</svg>
