<svg width="157" height="25" viewBox="0 0 157 25" fill="none" xmlns="http://www.w3.org/2000/svg">
<path d="M18 2.58008H15C13.6739 2.58008 12.4021 3.10686 11.4645 4.04454C10.5268 4.98223 10 6.254 10 7.58008V10.5801H7V14.5801H10V22.5801H14V14.5801H17L18 10.5801H14V7.58008C14 7.31486 14.1054 7.06051 14.2929 6.87297C14.4804 6.68544 14.7348 6.58008 15 6.58008H18V2.58008Z" stroke="#FFD6CD" stroke-linecap="round" stroke-linejoin="round"/>
<g clip-path="url(#clip0_339_1092)">
<path d="M62.6666 7.24683H64M54 3.24683H62C63.4144 3.24683 64.771 3.80873 65.7712 4.80892C66.7714 5.80912 67.3333 7.16567 67.3333 8.58016V16.5802C67.3333 17.9946 66.7714 19.3512 65.7712 20.3514C64.771 21.3516 63.4144 21.9135 62 21.9135H54C52.5855 21.9135 51.2289 21.3516 50.2287 20.3514C49.2285 19.3512 48.6666 17.9946 48.6666 16.5802V8.58016C48.6666 7.16567 49.2285 5.80912 50.2287 4.80892C51.2289 3.80873 52.5855 3.24683 54 3.24683ZM58 16.5802C56.9391 16.5802 55.9217 16.1587 55.1715 15.4086C54.4214 14.6584 54 13.641 54 12.5802C54 11.5193 54.4214 10.5019 55.1715 9.75173C55.9217 9.00159 56.9391 8.58016 58 8.58016C59.0608 8.58016 60.0782 9.00159 60.8284 9.75173C61.5785 10.5019 62 11.5193 62 12.5802C62 13.641 61.5785 14.6584 60.8284 15.4086C60.0782 16.1587 59.0608 16.5802 58 16.5802Z" stroke="#FFD6CD"/>
</g>
<path d="M103.618 11.2401L109.946 3.83008H108.446L102.953 10.2638L98.5625 3.83008H93.5L100.138 13.5601L93.5 21.3301H95L100.803 14.5351L105.439 21.3301H110.501L103.618 11.2401ZM101.564 13.6451L100.891 12.6763L95.54 4.96758H97.8438L102.161 11.1888L102.834 12.1576L108.448 20.2451H106.144L101.564 13.6451Z" fill="#FFD6CD"/>
<path d="M146 21.0801C147.81 21.0801 149.545 20.9011 151.153 20.5731C153.163 20.1631 154.167 19.9591 155.083 18.7811C156 17.6021 156 16.2491 156 13.5431V11.6171C156 8.91111 156 7.55711 155.083 6.37911C154.167 5.20111 153.163 4.99611 151.153 4.58711C149.456 4.24707 147.73 4.07723 146 4.08011C144.19 4.08011 142.455 4.25911 140.847 4.58711C138.837 4.99711 137.833 5.20111 136.917 6.37911C136 7.55811 136 8.91111 136 11.6171V13.5431C136 16.2491 136 17.6031 136.917 18.7811C137.833 19.9591 138.837 20.1641 140.847 20.5731C142.455 20.9011 144.19 21.0801 146 21.0801Z" stroke="#FFD6CD" stroke-linecap="round" stroke-linejoin="round"/>
<path d="M149.962 12.8931C149.814 13.4991 149.024 13.9331 147.445 14.8041C145.727 15.7511 144.868 16.2241 144.173 16.0411C143.941 15.9813 143.725 15.8733 143.538 15.7241C143 15.2891 143 14.3861 143 12.5801C143 10.7741 143 9.87112 143.538 9.43612C143.72 9.28912 143.938 9.18012 144.173 9.11912C144.868 8.93612 145.727 9.40912 147.445 10.3561C149.025 11.2261 149.814 11.6611 149.962 12.2671C150.012 12.4731 150.012 12.6871 149.962 12.8931Z" stroke="#FFD6CD" stroke-linecap="round" stroke-linejoin="round"/>
<defs>
<clipPath id="clip0_339_1092">
<rect width="20" height="20" fill="white" transform="translate(48 2.58008)"/>
</clipPath>
</defs>
</svg>
