<svg width="28" height="93" viewBox="0 0 28 93" fill="none" xmlns="http://www.w3.org/2000/svg">
<path d="M17.9062 7.22119C16.293 7.22119 14.8805 7.91494 14 9.0876C13.1195 7.91494 11.707 7.22119 10.0938 7.22119C8.80955 7.22264 7.57837 7.73343 6.6703 8.64149C5.76223 9.54956 5.25145 10.7807 5.25 12.0649C5.25 17.5337 13.3586 21.9603 13.7039 22.1431C13.7949 22.192 13.8967 22.2177 14 22.2177C14.1033 22.2177 14.2051 22.192 14.2961 22.1431C14.6414 21.9603 22.75 17.5337 22.75 12.0649C22.7486 10.7807 22.2378 9.54956 21.3297 8.64149C20.4216 7.73343 19.1904 7.22264 17.9062 7.22119ZM14 20.8774C12.5734 20.0462 6.5 16.2595 6.5 12.0649C6.50124 11.1122 6.88026 10.1988 7.55396 9.52515C8.22765 8.85146 9.14101 8.47243 10.0938 8.47119C11.6133 8.47119 12.8891 9.28057 13.4219 10.5806C13.469 10.6952 13.5491 10.7932 13.652 10.8622C13.7549 10.9312 13.8761 10.9681 14 10.9681C14.1239 10.9681 14.2451 10.9312 14.348 10.8622C14.4509 10.7932 14.531 10.6952 14.5781 10.5806C15.1109 9.27822 16.3867 8.47119 17.9062 8.47119C18.859 8.47243 19.7724 8.85146 20.446 9.52515C21.1197 10.1988 21.4988 11.1122 21.5 12.0649C21.5 16.2532 15.425 20.0454 14 20.8774Z" fill="#00A911"/>
<path d="M23.3211 45.8431C23.2937 45.7813 22.632 44.3134 21.1609 42.8423C19.2008 40.8821 16.725 39.8462 14 39.8462C11.275 39.8462 8.79921 40.8821 6.83905 42.8423C5.36796 44.3134 4.70312 45.7837 4.6789 45.8431C4.64336 45.923 4.625 46.0095 4.625 46.097C4.625 46.1844 4.64336 46.2709 4.6789 46.3509C4.70624 46.4126 5.36796 47.8798 6.83905 49.3509C8.79921 51.3103 11.275 52.3462 14 52.3462C16.725 52.3462 19.2008 51.3103 21.1609 49.3509C22.632 47.8798 23.2937 46.4126 23.3211 46.3509C23.3566 46.2709 23.375 46.1844 23.375 46.097C23.375 46.0095 23.3566 45.923 23.3211 45.8431ZM14 51.0962C11.5953 51.0962 9.49452 50.222 7.75546 48.4985C7.04193 47.7889 6.43485 46.9797 5.95312 46.0962C6.43467 45.2125 7.04176 44.4033 7.75546 43.6938C9.49452 41.9704 11.5953 41.0962 14 41.0962C16.4047 41.0962 18.5055 41.9704 20.2445 43.6938C20.9594 44.4032 21.5678 45.2124 22.0508 46.0962C21.4875 47.1478 19.0336 51.0962 14 51.0962ZM14 42.3462C13.2583 42.3462 12.5333 42.5661 11.9166 42.9782C11.2999 43.3902 10.8193 43.9759 10.5354 44.6611C10.2516 45.3464 10.1774 46.1004 10.322 46.8278C10.4667 47.5552 10.8239 48.2234 11.3483 48.7478C11.8728 49.2723 12.541 49.6294 13.2684 49.7741C13.9958 49.9188 14.7498 49.8446 15.4351 49.5607C16.1203 49.2769 16.7059 48.7963 17.118 48.1796C17.5301 47.5629 17.75 46.8379 17.75 46.0962C17.749 45.1019 17.3535 44.1487 16.6505 43.4457C15.9475 42.7426 14.9942 42.3472 14 42.3462ZM14 48.5962C13.5055 48.5962 13.0222 48.4496 12.6111 48.1749C12.1999 47.9002 11.8795 47.5097 11.6903 47.0529C11.5011 46.5961 11.4516 46.0934 11.548 45.6085C11.6445 45.1235 11.8826 44.6781 12.2322 44.3284C12.5819 43.9788 13.0273 43.7407 13.5123 43.6442C13.9972 43.5478 14.4999 43.5973 14.9567 43.7865C15.4135 43.9757 15.804 44.2961 16.0787 44.7073C16.3534 45.1184 16.5 45.6017 16.5 46.0962C16.5 46.7592 16.2366 47.3951 15.7678 47.864C15.2989 48.3328 14.663 48.5962 14 48.5962Z" fill="#00A911"/>
<path d="M4 68.9533C4 68.726 4.09031 68.508 4.25107 68.3472C4.41183 68.1865 4.62986 68.0962 4.8572 68.0962H5.49496C6.58075 68.0962 7.23223 68.8265 7.60368 69.5053C7.8517 69.9579 8.03114 70.4825 8.17172 70.9579L8.28601 70.9533H22.5704C23.5191 70.9533 24.2048 71.8608 23.9443 72.7739L21.855 80.0985C21.6676 80.7555 21.2713 81.3335 20.7261 81.7451C20.1808 82.1567 19.5162 82.3795 18.833 82.3796H12.0348C11.3462 82.3796 10.6766 82.1535 10.129 81.736C9.58141 81.3185 9.18608 80.7328 9.00378 80.0688L8.13515 76.9008L6.69504 72.0459L6.6939 72.0368C6.5156 71.3888 6.34874 70.7819 6.09958 70.3293C5.8607 69.8893 5.66869 69.8105 5.4961 69.8105H4.8572C4.62986 69.8105 4.41183 69.7202 4.25107 69.5594C4.09031 69.3987 4 69.1807 4 68.9533ZM9.79812 76.4848L10.6565 79.615C10.8279 80.2345 11.3914 80.6653 12.0348 80.6653H18.833C19.1436 80.6653 19.4457 80.5641 19.6936 80.3771C19.9414 80.1901 20.1216 79.9274 20.2068 79.6288L22.1921 72.6676H8.6689L9.78212 76.4242L9.79812 76.4848ZM13.715 85.8105C13.715 86.4167 13.4741 86.9981 13.0454 87.4267C12.6168 87.8554 12.0353 88.0962 11.4291 88.0962C10.8228 88.0962 10.2414 87.8554 9.81273 87.4267C9.38405 86.9981 9.14322 86.4167 9.14322 85.8105C9.14322 85.2043 9.38405 84.6229 9.81273 84.1942C10.2414 83.7656 10.8228 83.5248 11.4291 83.5248C12.0353 83.5248 12.6168 83.7656 13.0454 84.1942C13.4741 84.6229 13.715 85.2043 13.715 85.8105ZM12.0006 85.8105C12.0006 85.6589 11.9404 85.5136 11.8332 85.4064C11.726 85.2993 11.5807 85.239 11.4291 85.239C11.2775 85.239 11.1322 85.2993 11.025 85.4064C10.9178 85.5136 10.8576 85.6589 10.8576 85.8105C10.8576 85.962 10.9178 86.1074 11.025 86.2145C11.1322 86.3217 11.2775 86.3819 11.4291 86.3819C11.5807 86.3819 11.726 86.3217 11.8332 86.2145C11.9404 86.1074 12.0006 85.962 12.0006 85.8105ZM21.7155 85.8105C21.7155 86.4167 21.4747 86.9981 21.046 87.4267C20.6173 87.8554 20.0359 88.0962 19.4296 88.0962C18.8234 88.0962 18.242 87.8554 17.8133 87.4267C17.3846 86.9981 17.1438 86.4167 17.1438 85.8105C17.1438 85.2043 17.3846 84.6229 17.8133 84.1942C18.242 83.7656 18.8234 83.5248 19.4296 83.5248C20.0359 83.5248 20.6173 83.7656 21.046 84.1942C21.4747 84.6229 21.7155 85.2043 21.7155 85.8105ZM20.0011 85.8105C20.0011 85.6589 19.9409 85.5136 19.8337 85.4064C19.7266 85.2993 19.5812 85.239 19.4296 85.239C19.2781 85.239 19.1327 85.2993 19.0256 85.4064C18.9184 85.5136 18.8582 85.6589 18.8582 85.8105C18.8582 85.962 18.9184 86.1074 19.0256 86.2145C19.1327 86.3217 19.2781 86.3819 19.4296 86.3819C19.5812 86.3819 19.7266 86.3217 19.8337 86.2145C19.9409 86.1074 20.0011 85.962 20.0011 85.8105Z" fill="#00A911"/>
</svg>
