<svg width="28" height="93" viewBox="0 0 28 93" fill="none" xmlns="http://www.w3.org/2000/svg">
<path d="M17.9062 7.22125C16.293 7.22125 14.8805 7.915 14 9.08766C13.1195 7.915 11.707 7.22125 10.0938 7.22125C8.80955 7.2227 7.57837 7.73349 6.6703 8.64155C5.76223 9.54962 5.25145 10.7808 5.25 12.065C5.25 17.5338 13.3586 21.9603 13.7039 22.1431C13.7949 22.1921 13.8967 22.2177 14 22.2177C14.1033 22.2177 14.2051 22.1921 14.2961 22.1431C14.6414 21.9603 22.75 17.5338 22.75 12.065C22.7486 10.7808 22.2378 9.54962 21.3297 8.64155C20.4216 7.73349 19.1904 7.2227 17.9062 7.22125ZM14 20.8775C12.5734 20.0463 6.5 16.2595 6.5 12.065C6.50124 11.1123 6.88026 10.1989 7.55396 9.52521C8.22765 8.85152 9.14101 8.47249 10.0938 8.47125C11.6133 8.47125 12.8891 9.28063 13.4219 10.5806C13.469 10.6953 13.5491 10.7933 13.652 10.8623C13.7549 10.9313 13.8761 10.9681 14 10.9681C14.1239 10.9681 14.2451 10.9313 14.348 10.8623C14.4509 10.7933 14.531 10.6953 14.5781 10.5806C15.1109 9.27828 16.3867 8.47125 17.9062 8.47125C18.859 8.47249 19.7724 8.85152 20.446 9.52521C21.1197 10.1989 21.4988 11.1123 21.5 12.065C21.5 16.2533 15.425 20.0455 14 20.8775Z" fill="#00A911"/>
<path d="M23.3211 45.8431C23.2937 45.7814 22.632 44.3134 21.1609 42.8423C19.2008 40.8822 16.725 39.8463 14 39.8463C11.275 39.8463 8.79921 40.8822 6.83905 42.8423C5.36796 44.3134 4.70312 45.7838 4.6789 45.8431C4.64336 45.9231 4.625 46.0096 4.625 46.097C4.625 46.1845 4.64336 46.271 4.6789 46.3509C4.70624 46.4127 5.36796 47.8798 6.83905 49.3509C8.79921 51.3103 11.275 52.3463 14 52.3463C16.725 52.3463 19.2008 51.3103 21.1609 49.3509C22.632 47.8798 23.2937 46.4127 23.3211 46.3509C23.3566 46.271 23.375 46.1845 23.375 46.097C23.375 46.0096 23.3566 45.9231 23.3211 45.8431ZM14 51.0963C11.5953 51.0963 9.49452 50.222 7.75546 48.4986C7.04193 47.789 6.43485 46.9798 5.95312 46.0963C6.43467 45.2126 7.04176 44.4034 7.75546 43.6939C9.49452 41.9705 11.5953 41.0963 14 41.0963C16.4047 41.0963 18.5055 41.9705 20.2445 43.6939C20.9594 44.4033 21.5678 45.2125 22.0508 46.0963C21.4875 47.1478 19.0336 51.0963 14 51.0963ZM14 42.3463C13.2583 42.3463 12.5333 42.5662 11.9166 42.9782C11.2999 43.3903 10.8193 43.976 10.5354 44.6612C10.2516 45.3464 10.1774 46.1004 10.322 46.8278C10.4667 47.5553 10.8239 48.2235 11.3483 48.7479C11.8728 49.2724 12.541 49.6295 13.2684 49.7742C13.9958 49.9189 14.7498 49.8446 15.4351 49.5608C16.1203 49.277 16.7059 48.7963 17.118 48.1796C17.5301 47.563 17.75 46.8379 17.75 46.0963C17.749 45.102 17.3535 44.1488 16.6505 43.4457C15.9475 42.7427 14.9942 42.3473 14 42.3463ZM14 48.5963C13.5055 48.5963 13.0222 48.4496 12.6111 48.1749C12.1999 47.9002 11.8795 47.5098 11.6903 47.053C11.5011 46.5961 11.4516 46.0935 11.548 45.6085C11.6445 45.1236 11.8826 44.6781 12.2322 44.3285C12.5819 43.9789 13.0273 43.7408 13.5123 43.6443C13.9972 43.5478 14.4999 43.5973 14.9567 43.7866C15.4135 43.9758 15.804 44.2962 16.0787 44.7073C16.3534 45.1185 16.5 45.6018 16.5 46.0963C16.5 46.7593 16.2366 47.3952 15.7678 47.864C15.2989 48.3329 14.663 48.5963 14 48.5963Z" fill="#00A911"/>
<path d="M4 68.9534C4 68.7261 4.09031 68.508 4.25107 68.3473C4.41183 68.1866 4.62986 68.0963 4.8572 68.0963H5.49496C6.58075 68.0963 7.23223 68.8265 7.60368 69.5054C7.8517 69.958 8.03114 70.4825 8.17172 70.958L8.28601 70.9534H22.5704C23.5191 70.9534 24.2048 71.8608 23.9443 72.774L21.855 80.0985C21.6676 80.7555 21.2713 81.3336 20.7261 81.7452C20.1808 82.1568 19.5162 82.3795 18.833 82.3797H12.0348C11.3462 82.3797 10.6766 82.1536 10.129 81.7361C9.58141 81.3186 9.18608 80.7328 9.00378 80.0688L8.13515 76.9008L6.69504 72.046L6.6939 72.0368C6.5156 71.3888 6.34874 70.782 6.09958 70.3294C5.8607 69.8894 5.66869 69.8105 5.4961 69.8105H4.8572C4.62986 69.8105 4.41183 69.7202 4.25107 69.5595C4.09031 69.3987 4 69.1807 4 68.9534ZM9.79812 76.4848L10.6565 79.6151C10.8279 80.2345 11.3914 80.6654 12.0348 80.6654H18.833C19.1436 80.6654 19.4457 80.5642 19.6936 80.3772C19.9414 80.1901 20.1216 79.9274 20.2068 79.6288L22.1921 72.6677H8.6689L9.78212 76.4243L9.79812 76.4848ZM13.715 85.8105C13.715 86.4167 13.4741 86.9981 13.0454 87.4268C12.6168 87.8554 12.0353 88.0963 11.4291 88.0963C10.8228 88.0963 10.2414 87.8554 9.81273 87.4268C9.38405 86.9981 9.14322 86.4167 9.14322 85.8105C9.14322 85.2043 9.38405 84.6229 9.81273 84.1943C10.2414 83.7656 10.8228 83.5248 11.4291 83.5248C12.0353 83.5248 12.6168 83.7656 13.0454 84.1943C13.4741 84.6229 13.715 85.2043 13.715 85.8105ZM12.0006 85.8105C12.0006 85.659 11.9404 85.5136 11.8332 85.4065C11.726 85.2993 11.5807 85.2391 11.4291 85.2391C11.2775 85.2391 11.1322 85.2993 11.025 85.4065C10.9178 85.5136 10.8576 85.659 10.8576 85.8105C10.8576 85.9621 10.9178 86.1074 11.025 86.2146C11.1322 86.3218 11.2775 86.382 11.4291 86.382C11.5807 86.382 11.726 86.3218 11.8332 86.2146C11.9404 86.1074 12.0006 85.9621 12.0006 85.8105ZM21.7155 85.8105C21.7155 86.4167 21.4747 86.9981 21.046 87.4268C20.6173 87.8554 20.0359 88.0963 19.4296 88.0963C18.8234 88.0963 18.242 87.8554 17.8133 87.4268C17.3846 86.9981 17.1438 86.4167 17.1438 85.8105C17.1438 85.2043 17.3846 84.6229 17.8133 84.1943C18.242 83.7656 18.8234 83.5248 19.4296 83.5248C20.0359 83.5248 20.6173 83.7656 21.046 84.1943C21.4747 84.6229 21.7155 85.2043 21.7155 85.8105ZM20.0011 85.8105C20.0011 85.659 19.9409 85.5136 19.8337 85.4065C19.7266 85.2993 19.5812 85.2391 19.4296 85.2391C19.2781 85.2391 19.1327 85.2993 19.0256 85.4065C18.9184 85.5136 18.8582 85.659 18.8582 85.8105C18.8582 85.9621 18.9184 86.1074 19.0256 86.2146C19.1327 86.3218 19.2781 86.382 19.4296 86.382C19.5812 86.382 19.7266 86.3218 19.8337 86.2146C19.9409 86.1074 20.0011 85.9621 20.0011 85.8105Z" fill="#00A911"/>
</svg>
