<svg width="39" height="31" viewBox="0 0 39 31" fill="none" xmlns="http://www.w3.org/2000/svg">
<g clip-path="url(#clip0_335_662)">
<path d="M7.74222 30.3732V28.4159C7.74222 27.6655 7.2854 27.1762 6.50239 27.1762C6.11095 27.1762 5.68683 27.3067 5.39318 27.7309C5.16492 27.372 4.83873 27.1762 4.34936 27.1762C4.02302 27.1762 3.69698 27.274 3.43587 27.6329V27.2415H2.75079V30.3732H3.43587V28.6442C3.43587 28.0897 3.72952 27.8286 4.18634 27.8286C4.64286 27.8286 4.87142 28.1223 4.87142 28.6442V30.3732H5.5565V28.6442C5.5565 28.0897 5.88254 27.8286 6.30667 27.8286C6.76349 27.8286 6.99175 28.1223 6.99175 28.6442V30.3732H7.74222ZM17.8878 27.2415H16.7787V26.2955H16.0937V27.2415H15.4738V27.8612H16.0935V29.2967C16.0935 30.0145 16.3872 30.4385 17.1702 30.4385C17.4638 30.4385 17.7899 30.3407 18.0184 30.2102L17.8225 29.6229C17.6268 29.7534 17.3986 29.7861 17.2354 29.7861C16.9092 29.7861 16.7787 29.5904 16.7787 29.264V27.8612H17.8878V27.2415ZM23.6948 27.1761C23.3033 27.1761 23.0424 27.372 22.8792 27.6329V27.2415H22.1941V30.3732H22.8792V28.6116C22.8792 28.0897 23.1075 27.7961 23.5316 27.7961C23.6621 27.7961 23.8252 27.8288 23.9557 27.8613L24.1514 27.2089C24.021 27.1762 23.8252 27.1762 23.6948 27.1762M14.9192 27.5026C14.5929 27.2742 14.1362 27.1764 13.6468 27.1764C12.864 27.1764 12.3421 27.5678 12.3421 28.1877C12.3421 28.7097 12.7335 29.0032 13.4186 29.1012L13.7448 29.1339C14.1037 29.1989 14.2994 29.2969 14.2994 29.46C14.2994 29.6883 14.0384 29.8515 13.5816 29.8515C13.1248 29.8515 12.766 29.6883 12.5376 29.5253L12.2114 30.0472C12.5703 30.3081 13.0597 30.4386 13.5489 30.4386C14.4624 30.4386 14.9844 30.0146 14.9844 29.4274C14.9844 28.8727 14.5603 28.5791 13.9078 28.4813L13.5816 28.4486C13.2879 28.4159 13.0597 28.3508 13.0597 28.1551C13.0597 27.9267 13.2879 27.7962 13.6468 27.7962C14.0384 27.7962 14.4298 27.9593 14.6256 28.0572L14.9192 27.5026ZM33.1229 27.1764C32.7313 27.1764 32.4703 27.3721 32.3072 27.6331V27.2416H31.6221V30.3734H32.3072V28.6118C32.3072 28.0899 32.5356 27.7962 32.9595 27.7962C33.0902 27.7962 33.2533 27.8289 33.3838 27.8615L33.5795 27.2091C33.4491 27.1764 33.2533 27.1764 33.1229 27.1764ZM24.3798 28.8075C24.3798 29.7535 25.0322 30.4386 26.0437 30.4386C26.5003 30.4386 26.8265 30.3408 27.1527 30.0799L26.8265 29.5253C26.5656 29.721 26.3046 29.8188 26.011 29.8188C25.4564 29.8188 25.0649 29.4274 25.0649 28.8075C25.0649 28.2204 25.4564 27.8288 26.011 27.7962C26.3046 27.7962 26.5656 27.894 26.8265 28.0899L27.1527 27.5353C26.8265 27.2742 26.5003 27.1764 26.0437 27.1764C25.0322 27.1764 24.3798 27.8615 24.3798 28.8075ZM30.7087 28.8075V27.2416H30.0237V27.6331C29.7952 27.3396 29.4691 27.1764 29.0449 27.1764C28.1641 27.1764 27.4791 27.8615 27.4791 28.8075C27.4791 29.7535 28.1641 30.4386 29.0449 30.4386C29.5016 30.4386 29.8279 30.2756 30.0237 29.982V30.3734H30.7087V28.8075ZM28.1967 28.8075C28.1967 28.2529 28.5556 27.7962 29.1427 27.7962C29.6973 27.7962 30.0889 28.2204 30.0889 28.8075C30.0889 29.3621 29.6973 29.8188 29.1427 29.8188C28.5556 29.7861 28.1967 29.3621 28.1967 28.8075ZM20.0084 27.1764C19.0949 27.1764 18.4424 27.8288 18.4424 28.8075C18.4424 29.7862 19.0948 30.4386 20.041 30.4386C20.4976 30.4386 20.9544 30.3081 21.3133 30.0146L20.987 29.5253C20.726 29.721 20.3998 29.8515 20.0737 29.8515C19.6495 29.8515 19.2254 29.6558 19.1275 29.101H21.4438V28.8402C21.4765 27.8288 20.8894 27.1764 20.0084 27.1764ZM20.0083 27.7635C20.4322 27.7635 20.726 28.0246 20.7911 28.514H19.16C19.2253 28.0899 19.5189 27.7635 20.0083 27.7635ZM37.0048 28.8075V26.002H36.3197V27.6331C36.0913 27.3396 35.7651 27.1764 35.341 27.1764C34.4602 27.1764 33.7751 27.8615 33.7751 28.8075C33.7751 29.7535 34.4602 30.4386 35.341 30.4386C35.7978 30.4386 36.124 30.2756 36.3197 29.982V30.3734H37.0048V28.8075ZM34.4929 28.8075C34.4929 28.2529 34.8516 27.7962 35.4389 27.7962C35.9935 27.7962 36.3849 28.2204 36.3849 28.8075C36.3849 29.3621 35.9935 29.8188 35.4389 29.8188C34.8516 29.7861 34.4929 29.3621 34.4929 28.8075ZM11.5914 28.8075V27.2416H10.9064V27.6331C10.678 27.3396 10.3518 27.1764 9.92764 27.1764C9.04684 27.1764 8.36176 27.8615 8.36176 28.8075C8.36176 29.7535 9.04684 30.4386 9.92764 30.4386C10.3845 30.4386 10.7106 30.2756 10.9064 29.982V30.3734H11.5914V28.8075ZM9.04684 28.8075C9.04684 28.2529 9.40573 27.7962 9.99287 27.7962C10.5475 27.7962 10.9391 28.2204 10.9391 28.8075C10.9391 29.3621 10.5475 29.8188 9.99287 29.8188C9.40573 29.7861 9.04684 29.3621 9.04684 28.8075Z" fill="black"/>
<path d="M14.6907 3.45923H24.9669V21.9238H14.6907V3.45923Z" fill="#FF5F00"/>
<path d="M15.3434 12.6916C15.3434 8.93996 17.1049 5.61235 19.8126 3.45918C17.8227 1.8933 15.3108 0.947266 12.5705 0.947266C6.07828 0.947266 0.82605 6.19949 0.82605 12.6916C0.82605 19.1836 6.07828 24.4358 12.5703 24.4358C15.3107 24.4358 17.8226 23.4898 19.8126 21.9238C17.1049 19.8033 15.3434 16.4431 15.3434 12.6916Z" fill="#EB001B"/>
<path d="M38.8317 12.6916C38.8317 19.1835 33.5794 24.4358 27.0874 24.4358C24.3471 24.4358 21.8352 23.4898 19.8452 21.9238C22.5855 19.7708 24.3145 16.4431 24.3145 12.6916C24.3145 8.93996 22.5528 5.61235 19.8452 3.45918C21.835 1.8933 24.3471 0.947266 27.0874 0.947266C33.5794 0.947266 38.8317 6.23219 38.8317 12.6916Z" fill="#F79E1B"/>
</g>
<defs>
<clipPath id="clip0_335_662">
<rect width="38.0435" height="29.5729" fill="white" transform="translate(0.82605 0.947266)"/>
</clipPath>
</defs>
</svg>
