<svg width="25" height="25" viewBox="0 0 25 25" fill="none" xmlns="http://www.w3.org/2000/svg">
<path d="M13.5734 6.79367L18.4483 11.5791M13.0814 9.07459L18.0458 13.8601M14.6915 12.9656L16.883 15.2465M16.6594 7.15146L18.4483 9.07459M13.0814 10.148L16.1227 7.15146M14.1548 11.4002L18.0458 7.68815M15.4518 12.7867L18.7614 9.61128M15.2282 15.7832L18.4483 12.4289M16.883 18.6008C17.2323 18.234 17.9564 17.6616 17.9564 17.6616C17.9564 17.6616 18.3769 17.0534 18.6719 16.633C18.967 16.2125 18.9921 16.0043 19.1639 15.5596C19.4505 14.8176 19.6212 14.3417 19.6559 13.547M16.6594 17.1696L16.883 18.3325C16.883 18.3325 16.8192 18.9824 16.6594 19.3611C16.3328 20.1348 15.1387 20.8817 15.1387 20.8817C15.1387 20.8817 14.821 20.5414 14.5573 20.2109C14.2598 19.838 13.8494 19.5294 13.797 19.0928M11.0241 17.4827C10.9019 18.4783 10.7111 20.2109 10.7111 20.2109C10.7111 20.2109 11.8173 20.2132 12.4106 19.9873C12.9991 19.7631 13.6628 19.0928 13.6628 19.0928C13.6628 19.0928 14.1306 18.7082 14.289 18.3325C14.4654 17.914 14.6443 17.2303 14.4679 16.8119M10.4874 19.3611C10.1905 19.2563 9.72713 19.0928 9.72713 19.0928C9.72713 19.0928 9.14159 18.789 8.7432 18.5114C8.33766 18.2287 8.02156 18.0089 7.66982 17.6616C7.32856 17.3246 7.19109 16.8251 6.99896 16.633M9.10099 13.5023C9.61845 13.2484 10.5067 13.159 11.0241 13.4128C11.368 13.5815 11.5031 13.7824 11.7397 14.0837C12.0533 14.483 12.232 14.7467 12.3211 15.2465C12.3763 15.556 12.3211 16.0515 12.3211 16.0515C12.3211 16.0515 12.0398 16.6337 11.7397 16.9013C11.3426 17.2554 11.0095 17.3355 10.4874 17.438C10.0076 17.5322 9.70576 17.2998 9.23517 17.0802C8.96609 16.9547 8.58527 16.6822 8.29596 16.4541M7.17786 11.9369L11.9633 12.9656L12.3211 11.5791L10.2191 10.9083M5.43362 9.74545V7.91177H11.2925V9.92435M5.61252 13.3234C5.61252 13.009 5.61757 12.2815 5.52307 11.9817M7.4462 7.7776C7.4462 7.7776 7.96821 7.12248 8.38541 6.79367C8.69367 6.55071 8.87745 6.4185 9.23517 6.25698C9.6946 6.04953 10.4874 5.85446 10.4874 5.85446C10.4874 5.85446 11.2518 5.69303 11.7397 5.63084C12.1072 5.58399 12.2944 5.62654 12.6789 5.58612C13.2103 5.53025 13.5013 5.63909 14.0206 5.76501M12.6789 0.934834C19.6109 0.947971 25.2858 7.43851 24.3519 14.3073C23.5364 20.3051 18.7319 24.493 12.6789 24.5044C6.61278 24.5159 1.77847 20.3182 0.961213 14.3073C0.0257539 7.42711 5.73541 0.921676 12.6789 0.934834ZM13.0814 11.5791C12.8285 11.132 12.5721 10.954 12.3211 10.5058C12.0264 9.97938 11.8594 9.66588 11.7397 9.07459C11.6115 8.4412 11.5135 8.02514 11.7397 7.4198C11.9441 6.87301 12.2056 6.59858 12.6789 6.25698C13.2164 5.86912 14.289 5.72029 14.289 5.72029C14.289 5.72029 15.4126 5.62728 16.1227 5.72029C16.8958 5.82156 17.3778 5.85478 18.0458 6.25698C18.7876 6.70364 19.0947 7.15842 19.5217 7.91177C19.9713 8.70498 20.0876 9.2423 20.1926 10.148C20.3117 11.1753 20.2234 11.7843 19.9689 12.7867C19.7702 13.5695 19.6364 14.0248 19.2086 14.7098C18.8413 15.2979 18.5906 15.6226 18.0458 16.0515C17.4628 16.5106 17.0732 16.7523 16.3463 16.9013C15.7817 17.017 15.4404 16.9866 14.8704 16.9013C14.4598 16.8399 14.1984 16.8455 13.8417 16.633C13.4592 16.405 13.3638 16.2163 13.2603 15.7832C13.1599 15.3629 13.2407 15.1635 13.2603 14.7098C13.2799 14.2561 13.2872 13.9981 13.3498 13.547C13.4109 13.1059 13.5689 12.866 13.484 12.4289C13.4108 12.0525 13.2622 11.8987 13.0814 11.5791ZM6.23865 12.7867C7.35769 12.2455 8.61919 12.6964 9.05627 13.8601C9.41945 14.827 9.24017 15.7323 8.38541 16.2752C7.49466 16.8409 6.37157 16.8781 5.74669 15.7832C5.13343 14.7086 5.12482 13.3253 6.23865 12.7867ZM4.62859 10.148L5.0311 11.9369L10.7111 10.5058L10.2191 8.85097L4.62859 10.148Z" stroke="#B22222" stroke-width="0.707772"/>
</svg>
