<svg width="25" height="26" viewBox="0 0 25 26" fill="none" xmlns="http://www.w3.org/2000/svg">
<path d="M13.5734 7.07404L18.4483 11.8595M13.0814 9.35497L18.0458 14.1404M14.6915 13.246L16.883 15.5269M16.6594 7.43183L18.4483 9.35497M13.0814 10.4283L16.1227 7.43183M14.1548 11.6806L18.0458 7.96852M15.4518 13.0671L18.7614 9.89166M15.2282 16.0636L18.4483 12.7093M16.883 18.8812C17.2323 18.5144 17.9564 17.942 17.9564 17.942C17.9564 17.942 18.3769 17.3338 18.6719 16.9133C18.967 16.4929 18.9921 16.2847 19.1639 15.84C19.4505 15.098 19.6212 14.622 19.6559 13.8274M16.6594 17.45L16.883 18.6128C16.883 18.6128 16.8192 19.2628 16.6594 19.6415C16.3328 20.4152 15.1387 21.1621 15.1387 21.1621C15.1387 21.1621 14.821 20.8217 14.5573 20.4913C14.2598 20.1184 13.8494 19.8098 13.797 19.3732M11.0241 17.7631C10.9019 18.7586 10.7111 20.4913 10.7111 20.4913C10.7111 20.4913 11.8173 20.4936 12.4106 20.2676C12.9991 20.0435 13.6628 19.3732 13.6628 19.3732C13.6628 19.3732 14.1306 18.9886 14.289 18.6128C14.4654 18.1944 14.6443 17.5107 14.4679 17.0922M10.4874 19.6415C10.1905 19.5367 9.72713 19.3732 9.72713 19.3732C9.72713 19.3732 9.14159 19.0694 8.7432 18.7917C8.33766 18.5091 8.02156 18.2893 7.66982 17.942C7.32856 17.605 7.19109 17.1055 6.99896 16.9133M9.10099 13.7826C9.61845 13.5288 10.5067 13.4393 11.0241 13.6932C11.368 13.8619 11.5031 14.0628 11.7397 14.3641C12.0533 14.7634 12.232 15.0271 12.3211 15.5269C12.3763 15.8364 12.3211 16.3319 12.3211 16.3319C12.3211 16.3319 12.0398 16.9141 11.7397 17.1817C11.3426 17.5358 11.0095 17.6159 10.4874 17.7184C10.0076 17.8126 9.70576 17.5801 9.23517 17.3606C8.96609 17.235 8.58527 16.9626 8.29596 16.7344M7.17786 12.2173L11.9633 13.246L12.3211 11.8595L10.2191 11.1887M5.43362 10.0258V8.19214H11.2925V10.2047M5.61252 13.6038C5.61252 13.2894 5.61757 12.5619 5.52307 12.262M7.4462 8.05797C7.4462 8.05797 7.96821 7.40285 8.38541 7.07404C8.69367 6.83108 8.87745 6.69887 9.23517 6.53735C9.6946 6.3299 10.4874 6.13483 10.4874 6.13483C10.4874 6.13483 11.2518 5.97341 11.7397 5.91121C12.1072 5.86436 12.2944 5.90691 12.6789 5.86649C13.2103 5.81062 13.5013 5.91947 14.0206 6.04539M12.6789 1.21521C19.6109 1.22834 25.2858 7.71888 24.3519 14.5877C23.5364 20.5855 18.7319 24.7733 12.6789 24.7848C6.61278 24.7963 1.77847 20.5985 0.961213 14.5877C0.0257539 7.70748 5.73541 1.20205 12.6789 1.21521ZM13.0814 11.8595C12.8285 11.4124 12.5721 11.2344 12.3211 10.7861C12.0264 10.2597 11.8594 9.94625 11.7397 9.35497C11.6115 8.72157 11.5135 8.30552 11.7397 7.70018C11.9441 7.15338 12.2056 6.87895 12.6789 6.53735C13.2164 6.14949 14.289 6.00066 14.289 6.00066C14.289 6.00066 15.4126 5.90765 16.1227 6.00066C16.8958 6.10193 17.3778 6.13516 18.0458 6.53735C18.7876 6.98401 19.0947 7.43879 19.5217 8.19214C19.9713 8.98535 20.0876 9.52267 20.1926 10.4283C20.3117 11.4556 20.2234 12.0647 19.9689 13.0671C19.7702 13.8498 19.6364 14.3052 19.2086 14.9902C18.8413 15.5783 18.5906 15.903 18.0458 16.3319C17.4628 16.7909 17.0732 17.0327 16.3463 17.1817C15.7817 17.2974 15.4404 17.2669 14.8704 17.1817C14.4598 17.1203 14.1984 17.1259 13.8417 16.9133C13.4592 16.6854 13.3638 16.4967 13.2603 16.0636C13.1599 15.6433 13.2407 15.4439 13.2603 14.9902C13.2799 14.5365 13.2872 14.2785 13.3498 13.8274C13.4109 13.3863 13.5689 13.1464 13.484 12.7093C13.4108 12.3329 13.2622 12.1791 13.0814 11.8595ZM6.23865 13.0671C7.35769 12.5259 8.61919 12.9768 9.05627 14.1404C9.41945 15.1073 9.24017 16.0127 8.38541 16.5555C7.49466 17.1212 6.37157 17.1585 5.74669 16.0636C5.13343 14.989 5.12482 13.6057 6.23865 13.0671ZM4.62859 10.4283L5.0311 12.2173L10.7111 10.7861L10.2191 9.13135L4.62859 10.4283Z" stroke="#B22222" stroke-width="0.707772"/>
</svg>
