<svg width="24" height="24" viewBox="0 0 24 24" fill="none" xmlns="http://www.w3.org/2000/svg">
<path d="M18.3572 12.7284C18.3898 16.2534 21.4498 17.4266 21.4836 17.4416C21.4577 17.5241 20.9947 19.1133 19.8716 20.7545C18.9007 22.1735 17.8929 23.5873 16.3057 23.6169C14.7461 23.6454 14.2446 22.6918 12.4612 22.6918C10.6785 22.6918 10.1214 23.5873 8.64487 23.6454C7.11262 23.7035 5.94581 22.1107 4.96687 20.6972C2.96662 17.8052 1.43794 12.525 3.4905 8.96078C4.51012 7.19078 6.33262 6.07009 8.31056 6.04121C9.81506 6.01253 11.2352 7.05334 12.1549 7.05334C13.074 7.05334 14.7997 5.80159 16.614 5.98534C17.3736 6.01703 19.5054 6.29209 20.8744 8.29609C20.7643 8.36453 18.3307 9.78128 18.3572 12.7284ZM15.426 4.07228C16.2394 3.08771 16.7869 1.71671 16.6376 0.353027C15.465 0.40009 14.0471 1.13434 13.2062 2.11853C12.4524 2.98984 11.7924 4.38484 11.9704 5.72153C13.2774 5.82278 14.6124 5.0574 15.426 4.07228Z" fill="black"/>
</svg>
