<svg width="75" height="16" viewBox="0 0 75 16" fill="none" xmlns="http://www.w3.org/2000/svg">
<g clip-path="url(#clip0_545_425)">
<path d="M5.34597 15.25L6.32105 10.8543L3.07892 7.89896L7.3496 7.51011L9.02217 3.36426L10.6947 7.50928L14.9646 7.89814L11.7225 10.8534L12.6984 15.2491L9.02217 12.916L5.34597 15.25Z" fill="#FFA500"/>
</g>
<g clip-path="url(#clip1_545_425)">
<path d="M20.2031 15.25L21.1782 10.8543L17.936 7.89896L22.2067 7.51011L23.8793 3.36426L25.5519 7.50928L29.8217 7.89814L26.5796 10.8534L27.5555 15.2491L23.8793 12.916L20.2031 15.25Z" fill="#FFA500"/>
</g>
<g clip-path="url(#clip2_545_425)">
<path d="M35.0603 15.25L36.0353 10.8543L32.7932 7.89896L37.0639 7.51011L38.7365 3.36426L40.409 7.50928L44.6789 7.89814L41.4368 10.8534L42.4127 15.2491L38.7365 12.916L35.0603 15.25Z" fill="#FFA500"/>
</g>
<g clip-path="url(#clip3_545_425)">
<path d="M49.9174 15.25L50.8925 10.8543L47.6503 7.89896L51.921 7.51011L53.5936 3.36426L55.2662 7.50928L59.536 7.89814L56.2939 10.8534L57.2698 15.2491L53.5936 12.916L49.9174 15.25Z" fill="#FFA500"/>
</g>
<g clip-path="url(#clip4_545_425)">
<path d="M65.331 14.4568L66.1123 10.9347L66.1588 10.7247L65.9999 10.5798L63.3808 8.19241L66.8119 7.88001L67.0378 7.85944L67.1226 7.64907L68.4508 4.35694L69.7789 7.64827L69.8638 7.85861L70.0896 7.87918L73.5199 8.19157L70.9009 10.5789L70.7419 10.7239L70.7885 10.9339L71.5704 14.456L68.6498 12.6024L68.4507 12.4761L68.2517 12.6024L65.331 14.4568Z" stroke="#1C1C1C" stroke-width="0.742857"/>
</g>
<defs>
<clipPath id="clip0_545_425">
<rect width="14.8571" height="14.8571" fill="white" transform="translate(0.329102 0.543213)"/>
</clipPath>
<clipPath id="clip1_545_425">
<rect width="14.8571" height="14.8571" fill="white" transform="translate(15.1862 0.543213)"/>
</clipPath>
<clipPath id="clip2_545_425">
<rect width="14.8571" height="14.8571" fill="white" transform="translate(30.0434 0.543213)"/>
</clipPath>
<clipPath id="clip3_545_425">
<rect width="14.8571" height="14.8571" fill="white" transform="translate(44.9005 0.543213)"/>
</clipPath>
<clipPath id="clip4_545_425">
<rect width="14.8571" height="14.8571" fill="white" transform="translate(59.7577 0.543213)"/>
</clipPath>
</defs>
</svg>
