<svg width="157" height="24" viewBox="0 0 157 24" fill="none" xmlns="http://www.w3.org/2000/svg">
<path d="M18 2.00098H15C13.6739 2.00098 12.4021 2.52776 11.4645 3.46544C10.5268 4.40312 10 5.67489 10 7.00098V10.001H7V14.001H10V22.001H14V14.001H17L18 10.001H14V7.00098C14 6.73576 14.1054 6.48141 14.2929 6.29387C14.4804 6.10633 14.7348 6.00098 15 6.00098H18V2.00098Z" stroke="#FFD6CD" stroke-linecap="round" stroke-linejoin="round"/>
<g clip-path="url(#clip0_545_220)">
<path d="M62.6666 6.66748H64M54 2.66748H62C63.4144 2.66748 64.771 3.22938 65.7712 4.22958C66.7714 5.22977 67.3333 6.58633 67.3333 8.00081V16.0008C67.3333 17.4153 66.7714 18.7719 65.7712 19.772C64.771 20.7722 63.4144 21.3341 62 21.3341H54C52.5855 21.3341 51.2289 20.7722 50.2287 19.772C49.2285 18.7719 48.6666 17.4153 48.6666 16.0008V8.00081C48.6666 6.58633 49.2285 5.22977 50.2287 4.22958C51.2289 3.22938 52.5855 2.66748 54 2.66748ZM58 16.0008C56.9391 16.0008 55.9217 15.5794 55.1715 14.8292C54.4214 14.0791 54 13.0617 54 12.0008C54 10.9399 54.4214 9.92253 55.1715 9.17239C55.9217 8.42224 56.9391 8.00081 58 8.00081C59.0608 8.00081 60.0782 8.42224 60.8284 9.17239C61.5785 9.92253 62 10.9399 62 12.0008C62 13.0617 61.5785 14.0791 60.8284 14.8292C60.0782 15.5794 59.0608 16.0008 58 16.0008Z" stroke="#FFD6CD"/>
</g>
<path d="M103.618 10.661L109.946 3.25098H108.446L102.953 9.68473L98.5625 3.25098H93.5L100.138 12.981L93.5 20.751H95L100.803 13.956L105.439 20.751H110.501L103.618 10.661ZM101.564 13.066L100.891 12.0972L95.54 4.38848H97.8438L102.161 10.6097L102.834 11.5785L108.448 19.666H106.144L101.564 13.066Z" fill="#FFD6CD"/>
<path d="M146 20.501C147.81 20.501 149.545 20.322 151.153 19.994C153.163 19.584 154.167 19.38 155.083 18.202C156 17.023 156 15.67 156 12.964V11.038C156 8.33201 156 6.97801 155.083 5.80001C154.167 4.62201 153.163 4.41701 151.153 4.00801C149.456 3.66797 147.73 3.49813 146 3.50101C144.19 3.50101 142.455 3.68001 140.847 4.00801C138.837 4.41801 137.833 4.62201 136.917 5.80001C136 6.97901 136 8.33201 136 11.038V12.964C136 15.67 136 17.024 136.917 18.202C137.833 19.38 138.837 19.585 140.847 19.994C142.455 20.322 144.19 20.501 146 20.501Z" stroke="#FFD6CD" stroke-linecap="round" stroke-linejoin="round"/>
<path d="M149.962 12.3138C149.814 12.9198 149.024 13.3538 147.445 14.2248C145.727 15.1718 144.868 15.6448 144.173 15.4618C143.941 15.402 143.725 15.2939 143.538 15.1448C143 14.7098 143 13.8068 143 12.0008C143 10.1948 143 9.29177 143.538 8.85677C143.72 8.70977 143.938 8.60077 144.173 8.53977C144.868 8.35677 145.727 8.82977 147.445 9.77677C149.025 10.6468 149.814 11.0818 149.962 11.6878C150.012 11.8938 150.012 12.1078 149.962 12.3138Z" stroke="#FFD6CD" stroke-linecap="round" stroke-linejoin="round"/>
<defs>
<clipPath id="clip0_545_220">
<rect width="20" height="20" fill="white" transform="translate(48 2.00098)"/>
</clipPath>
</defs>
</svg>
