<svg width="75" height="15" viewBox="0 0 75 15" fill="none" xmlns="http://www.w3.org/2000/svg">
<g clip-path="url(#clip0_550_1120)">
<path d="M5.35024 14.8215L6.32532 10.4258L3.08319 7.4705L7.35387 7.08164L9.02644 2.93579L10.699 7.08082L14.9689 7.46967L11.7268 10.425L12.7026 14.8207L9.02644 12.4875L5.35024 14.8215Z" fill="#FFA500"/>
</g>
<g clip-path="url(#clip1_550_1120)">
<path d="M20.2074 14.8215L21.1824 10.4258L17.9403 7.4705L22.211 7.08164L23.8836 2.93579L25.5561 7.08082L29.826 7.46967L26.5839 10.425L27.5598 14.8207L23.8836 12.4875L20.2074 14.8215Z" fill="#FFA500"/>
</g>
<g clip-path="url(#clip2_550_1120)">
<path d="M35.0645 14.8215L36.0396 10.4258L32.7975 7.4705L37.0682 7.08164L38.7407 2.93579L40.4133 7.08082L44.6832 7.46967L41.4411 10.425L42.4169 14.8207L38.7407 12.4875L35.0645 14.8215Z" fill="#FFA500"/>
</g>
<g clip-path="url(#clip3_550_1120)">
<path d="M49.9217 14.8215L50.8967 10.4258L47.6546 7.4705L51.9253 7.08164L53.5979 2.93579L55.2704 7.08082L59.5403 7.46967L56.2982 10.425L57.274 14.8207L53.5979 12.4875L49.9217 14.8215Z" fill="#FFA500"/>
</g>
<g clip-path="url(#clip4_550_1120)">
<path d="M65.3352 14.0283L66.1165 10.5062L66.1631 10.2962L66.0041 10.1513L63.3851 7.76395L66.8161 7.45154L67.042 7.43097L67.1269 7.22061L68.4551 3.92848L69.7832 7.2198L69.868 7.43014L70.0939 7.45071L73.5242 7.76311L70.9051 10.1505L70.7461 10.2954L70.7928 10.5055L71.5747 14.0275L68.6541 12.1739L68.455 12.0476L68.2559 12.174L65.3352 14.0283Z" stroke="#1C1C1C" stroke-width="0.742857"/>
</g>
<defs>
<clipPath id="clip0_550_1120">
<rect width="14.8571" height="14.8571" fill="white" transform="translate(0.333374 0.114746)"/>
</clipPath>
<clipPath id="clip1_550_1120">
<rect width="14.8571" height="14.8571" fill="white" transform="translate(15.1905 0.114746)"/>
</clipPath>
<clipPath id="clip2_550_1120">
<rect width="14.8571" height="14.8571" fill="white" transform="translate(30.0477 0.114746)"/>
</clipPath>
<clipPath id="clip3_550_1120">
<rect width="14.8571" height="14.8571" fill="white" transform="translate(44.9048 0.114746)"/>
</clipPath>
<clipPath id="clip4_550_1120">
<rect width="14.8571" height="14.8571" fill="white" transform="translate(59.762 0.114746)"/>
</clipPath>
</defs>
</svg>
