<svg width="62" height="62" viewBox="0 0 62 62" fill="none" xmlns="http://www.w3.org/2000/svg">
<path fill-rule="evenodd" clip-rule="evenodd" d="M31.0002 53.5646C34.0108 53.5646 36.9919 52.9716 39.7734 51.8195C42.5548 50.6674 45.0821 48.9787 47.2109 46.8499C49.3397 44.7211 51.0284 42.1938 52.1805 39.4124C53.3326 36.631 53.9256 33.6498 53.9256 30.6392C53.9256 27.6286 53.3326 24.6475 52.1805 21.8661C51.0284 19.0846 49.3397 16.5574 47.2109 14.4286C45.0821 12.2997 42.5548 10.6111 39.7734 9.45896C36.9919 8.30685 34.0108 7.71387 31.0002 7.71387C24.92 7.71387 19.0889 10.1292 14.7895 14.4286C10.4902 18.7279 8.07483 24.5591 8.07483 30.6392C8.07483 36.7194 10.4902 42.5506 14.7895 46.8499C19.0889 51.1493 24.92 53.5646 31.0002 53.5646ZM30.4092 39.9113L43.1456 24.6277L39.233 21.3672L28.2797 34.5085L22.6121 28.8383L19.0102 32.4402L26.652 40.0819L28.6236 42.0535L30.4092 39.9113Z" fill="#007200"/>
</svg>
