<svg width="39" height="30" viewBox="0 0 39 30" fill="none" xmlns="http://www.w3.org/2000/svg">
<g clip-path="url(#clip0_550_955)">
<path d="M6.95956 29.5139V27.5566C6.95956 26.8061 6.50274 26.3169 5.71973 26.3169C5.3283 26.3169 4.90417 26.4474 4.61053 26.8715C4.38227 26.5126 4.05607 26.3169 3.56671 26.3169C3.24037 26.3169 2.91432 26.4147 2.65322 26.7735V26.3821H1.96814V29.5139H2.65322V27.7848C2.65322 27.2304 2.94687 26.9693 3.40369 26.9693C3.86021 26.9693 4.08877 27.2629 4.08877 27.7848V29.5139H4.77385V27.7848C4.77385 27.2304 5.09989 26.9693 5.52402 26.9693C5.98083 26.9693 6.2091 27.2629 6.2091 27.7848V29.5139H6.95956ZM17.1051 26.3821H15.9961V25.4361H15.311V26.3821H14.6912V27.0018H15.3108V28.4374C15.3108 29.1551 15.6045 29.5791 16.3875 29.5791C16.6812 29.5791 17.0072 29.4813 17.2358 29.3508L17.0399 28.7635C16.8442 28.894 16.6159 28.9267 16.4527 28.9267C16.1266 28.9267 15.9961 28.731 15.9961 28.4047V27.0018H17.1051V26.3821ZM22.9121 26.3167C22.5207 26.3167 22.2597 26.5126 22.0966 26.7735V26.3821H21.4115V29.5139H22.0966V27.7523C22.0966 27.2304 22.3248 26.9367 22.7489 26.9367C22.8794 26.9367 23.0426 26.9694 23.1731 27.002L23.3688 26.3496C23.2383 26.3169 23.0426 26.3169 22.9121 26.3169M14.1366 26.6432C13.8102 26.4148 13.3535 26.317 12.8642 26.317C12.0813 26.317 11.5594 26.7085 11.5594 27.3283C11.5594 27.8504 11.9508 28.1439 12.6359 28.2418L12.9621 28.2745C13.321 28.3396 13.5167 28.4375 13.5167 28.6007C13.5167 28.8289 13.2558 28.9921 12.7989 28.9921C12.3421 28.9921 11.9834 28.8289 11.755 28.6659L11.4288 29.1878C11.7877 29.4488 12.277 29.5793 12.7662 29.5793C13.6797 29.5793 14.2018 29.1553 14.2018 28.568C14.2018 28.0134 13.7777 27.7197 13.1251 27.6219L12.7989 27.5892C12.5053 27.5566 12.277 27.4915 12.277 27.2958C12.277 27.0673 12.5053 26.9369 12.8642 26.9369C13.2558 26.9369 13.6472 27.0999 13.8429 27.1978L14.1366 26.6432ZM32.3402 26.317C31.9486 26.317 31.6877 26.5127 31.5245 26.7737V26.3823H30.8394V29.514H31.5245V27.7524C31.5245 27.2305 31.7529 26.9369 32.1769 26.9369C32.3075 26.9369 32.4707 26.9696 32.6012 27.0021L32.7969 26.3497C32.6664 26.317 32.4707 26.317 32.3402 26.317ZM23.5972 27.9481C23.5972 28.8942 24.2496 29.5793 25.261 29.5793C25.7177 29.5793 26.0439 29.4815 26.3701 29.2205L26.0439 28.6659C25.7829 28.8616 25.522 28.9594 25.2283 28.9594C24.6737 28.9594 24.2823 28.568 24.2823 27.9481C24.2823 27.361 24.6737 26.9694 25.2283 26.9369C25.522 26.9369 25.7829 27.0346 26.0439 27.2305L26.3701 26.6759C26.0439 26.4148 25.7177 26.317 25.261 26.317C24.2496 26.317 23.5972 27.0021 23.5972 27.9481ZM29.9261 27.9481V26.3823H29.241V26.7737C29.0126 26.4802 28.6864 26.317 28.2623 26.317C27.3815 26.317 26.6964 27.0021 26.6964 27.9481C26.6964 28.8942 27.3815 29.5793 28.2623 29.5793C28.7189 29.5793 29.0453 29.4162 29.241 29.1226V29.514H29.9261V27.9481ZM27.414 27.9481C27.414 27.3935 27.7729 26.9369 28.3601 26.9369C28.9147 26.9369 29.3062 27.361 29.3062 27.9481C29.3062 28.5027 28.9147 28.9594 28.3601 28.9594C27.7729 28.9267 27.414 28.5027 27.414 27.9481ZM19.2258 26.317C18.3123 26.317 17.6597 26.9694 17.6597 27.9481C17.6597 28.9269 18.3121 29.5793 19.2583 29.5793C19.715 29.5793 20.1718 29.4488 20.5307 29.1553L20.2043 28.6659C19.9434 28.8616 19.6172 28.9921 19.291 28.9921C18.8669 28.9921 18.4427 28.7964 18.3448 28.2416H20.6612V27.9808C20.6939 26.9694 20.1067 26.317 19.2258 26.317ZM19.2256 26.9042C19.6496 26.9042 19.9434 27.1653 20.0085 27.6546H18.3774C18.4426 27.2305 18.7362 26.9042 19.2256 26.9042ZM36.2221 27.9481V25.1426H35.537V26.7737C35.3086 26.4802 34.9824 26.317 34.5583 26.317C33.6775 26.317 32.9924 27.0021 32.9924 27.9481C32.9924 28.8942 33.6775 29.5793 34.5583 29.5793C35.0151 29.5793 35.3413 29.4162 35.537 29.1226V29.514H36.2221V27.9481ZM33.7102 27.9481C33.7102 27.3935 34.069 26.9369 34.6563 26.9369C35.2109 26.9369 35.6023 27.361 35.6023 27.9481C35.6023 28.5027 35.2109 28.9594 34.6563 28.9594C34.069 28.9267 33.7102 28.5027 33.7102 27.9481ZM10.8088 27.9481V26.3823H10.1237V26.7737C9.8953 26.4802 9.56911 26.317 9.14498 26.317C8.26419 26.317 7.57911 27.0021 7.57911 27.9481C7.57911 28.8942 8.26419 29.5793 9.14498 29.5793C9.6018 29.5793 9.92799 29.4162 10.1237 29.1226V29.514H10.8088V27.9481ZM8.26419 27.9481C8.26419 27.3935 8.62307 26.9369 9.21022 26.9369C9.76482 26.9369 10.1564 27.361 10.1564 27.9481C10.1564 28.5027 9.76482 28.9594 9.21022 28.9594C8.62307 28.9267 8.26419 28.5027 8.26419 27.9481Z" fill="black"/>
<path d="M13.9082 2.6001H24.1844V21.0647H13.9082V2.6001Z" fill="#FF5F00"/>
<path d="M14.5608 11.8324C14.5608 8.08083 16.3223 4.75322 19.03 2.60004C17.0401 1.03417 14.5282 0.0881348 11.7879 0.0881348C5.29569 0.0881348 0.043457 5.34036 0.043457 11.8324C0.043457 18.3245 5.29569 23.5767 11.7877 23.5767C14.5281 23.5767 17.04 22.6307 19.03 21.0647C16.3223 18.9442 14.5608 15.584 14.5608 11.8324Z" fill="#EB001B"/>
<path d="M38.0491 11.8324C38.0491 18.3243 32.7969 23.5767 26.3049 23.5767C23.5645 23.5767 21.0526 22.6307 19.0626 21.0647C21.8029 18.9116 23.532 15.584 23.532 11.8324C23.532 8.08083 21.7702 4.75322 19.0626 2.60004C21.0525 1.03417 23.5645 0.0881348 26.3049 0.0881348C32.7969 0.0881348 38.0491 5.37306 38.0491 11.8324Z" fill="#F79E1B"/>
</g>
<defs>
<clipPath id="clip0_550_955">
<rect width="38.0435" height="29.5729" fill="white" transform="translate(0.043457 0.0881348)"/>
</clipPath>
</defs>
</svg>
