<svg width="39" height="30" viewBox="0 0 39 30" fill="none" xmlns="http://www.w3.org/2000/svg">
<g clip-path="url(#clip0_545_269)">
<path d="M7.74222 29.5144V27.557C7.74222 26.8066 7.2854 26.3174 6.50239 26.3174C6.11095 26.3174 5.68683 26.4478 5.39318 26.872C5.16492 26.5131 4.83873 26.3174 4.34936 26.3174C4.02302 26.3174 3.69698 26.4151 3.43587 26.774V26.3826H2.75079V29.5144H3.43587V27.7853C3.43587 27.2309 3.72952 26.9697 4.18634 26.9697C4.64286 26.9697 4.87142 27.2634 4.87142 27.7853V29.5144H5.5565V27.7853C5.5565 27.2309 5.88254 26.9697 6.30667 26.9697C6.76349 26.9697 6.99175 27.2634 6.99175 27.7853V29.5144H7.74222ZM17.8878 26.3826H16.7787V25.4366H16.0937V26.3826H15.4738V27.0023H16.0935V28.4378C16.0935 29.1556 16.3872 29.5796 17.1702 29.5796C17.4638 29.5796 17.7899 29.4818 18.0184 29.3513L17.8225 28.764C17.6268 28.8945 17.3986 28.9272 17.2354 28.9272C16.9092 28.9272 16.7787 28.7315 16.7787 28.4051V27.0023H17.8878V26.3826ZM23.6948 26.3172C23.3033 26.3172 23.0424 26.5131 22.8792 26.774V26.3826H22.1941V29.5144H22.8792V27.7528C22.8792 27.2309 23.1075 26.9372 23.5316 26.9372C23.6621 26.9372 23.8252 26.9699 23.9557 27.0024L24.1514 26.3501C24.021 26.3174 23.8252 26.3174 23.6948 26.3174M14.9192 26.6437C14.5929 26.4153 14.1362 26.3175 13.6468 26.3175C12.864 26.3175 12.3421 26.7089 12.3421 27.3288C12.3421 27.8508 12.7335 28.1443 13.4186 28.2423L13.7448 28.275C14.1037 28.3401 14.2994 28.438 14.2994 28.6012C14.2994 28.8294 14.0384 28.9926 13.5816 28.9926C13.1248 28.9926 12.766 28.8294 12.5376 28.6664L12.2114 29.1883C12.5703 29.4493 13.0597 29.5797 13.5489 29.5797C14.4624 29.5797 14.9844 29.1558 14.9844 28.5685C14.9844 28.0139 14.5603 27.7202 13.9078 27.6224L13.5816 27.5897C13.2879 27.557 13.0597 27.492 13.0597 27.2962C13.0597 27.0678 13.2879 26.9374 13.6468 26.9374C14.0384 26.9374 14.4298 27.1004 14.6256 27.1983L14.9192 26.6437ZM33.1229 26.3175C32.7313 26.3175 32.4703 26.5132 32.3072 26.7742V26.3828H31.6221V29.5145H32.3072V27.7529C32.3072 27.231 32.5356 26.9374 32.9595 26.9374C33.0902 26.9374 33.2533 26.97 33.3838 27.0026L33.5795 26.3502C33.4491 26.3175 33.2533 26.3175 33.1229 26.3175ZM24.3798 27.9486C24.3798 28.8947 25.0322 29.5797 26.0437 29.5797C26.5003 29.5797 26.8265 29.482 27.1527 29.221L26.8265 28.6664C26.5656 28.8621 26.3046 28.9599 26.011 28.9599C25.4564 28.9599 25.0649 28.5685 25.0649 27.9486C25.0649 27.3615 25.4564 26.9699 26.011 26.9374C26.3046 26.9374 26.5656 27.0351 26.8265 27.231L27.1527 26.6764C26.8265 26.4153 26.5003 26.3175 26.0437 26.3175C25.0322 26.3175 24.3798 27.0026 24.3798 27.9486ZM30.7087 27.9486V26.3828H30.0237V26.7742C29.7952 26.4807 29.4691 26.3175 29.0449 26.3175C28.1641 26.3175 27.4791 27.0026 27.4791 27.9486C27.4791 28.8947 28.1641 29.5797 29.0449 29.5797C29.5016 29.5797 29.8279 29.4167 30.0237 29.1231V29.5145H30.7087V27.9486ZM28.1967 27.9486C28.1967 27.394 28.5556 26.9374 29.1427 26.9374C29.6973 26.9374 30.0889 27.3615 30.0889 27.9486C30.0889 28.5032 29.6973 28.9599 29.1427 28.9599C28.5556 28.9272 28.1967 28.5032 28.1967 27.9486ZM20.0084 26.3175C19.0949 26.3175 18.4424 26.9699 18.4424 27.9486C18.4424 28.9274 19.0948 29.5797 20.041 29.5797C20.4976 29.5797 20.9544 29.4493 21.3133 29.1558L20.987 28.6664C20.726 28.8621 20.3998 28.9926 20.0737 28.9926C19.6495 28.9926 19.2254 28.7969 19.1275 28.2421H21.4438V27.9813C21.4765 26.9699 20.8894 26.3175 20.0084 26.3175ZM20.0083 26.9047C20.4322 26.9047 20.726 27.1658 20.7911 27.6551H19.16C19.2253 27.231 19.5189 26.9047 20.0083 26.9047ZM37.0048 27.9486V25.1431H36.3197V26.7742C36.0913 26.4807 35.7651 26.3175 35.341 26.3175C34.4602 26.3175 33.7751 27.0026 33.7751 27.9486C33.7751 28.8947 34.4602 29.5797 35.341 29.5797C35.7978 29.5797 36.124 29.4167 36.3197 29.1231V29.5145H37.0048V27.9486ZM34.4929 27.9486C34.4929 27.394 34.8516 26.9374 35.4389 26.9374C35.9935 26.9374 36.3849 27.3615 36.3849 27.9486C36.3849 28.5032 35.9935 28.9599 35.4389 28.9599C34.8516 28.9272 34.4929 28.5032 34.4929 27.9486ZM11.5914 27.9486V26.3828H10.9064V26.7742C10.678 26.4807 10.3518 26.3175 9.92764 26.3175C9.04684 26.3175 8.36176 27.0026 8.36176 27.9486C8.36176 28.8947 9.04684 29.5797 9.92764 29.5797C10.3845 29.5797 10.7106 29.4167 10.9064 29.1231V29.5145H11.5914V27.9486ZM9.04684 27.9486C9.04684 27.394 9.40573 26.9374 9.99287 26.9374C10.5475 26.9374 10.9391 27.3615 10.9391 27.9486C10.9391 28.5032 10.5475 28.9599 9.99287 28.9599C9.40573 28.9272 9.04684 28.5032 9.04684 27.9486Z" fill="black"/>
<path d="M14.6907 2.6001H24.9669V21.0647H14.6907V2.6001Z" fill="#FF5F00"/>
<path d="M15.3434 11.8327C15.3434 8.08108 17.1049 4.75346 19.8126 2.60029C17.8227 1.03441 15.3108 0.0883789 12.5705 0.0883789C6.07828 0.0883789 0.82605 5.34061 0.82605 11.8327C0.82605 18.3247 6.07828 23.577 12.5703 23.577C15.3107 23.577 17.8226 22.6309 19.8126 21.0649C17.1049 18.9444 15.3434 15.5843 15.3434 11.8327Z" fill="#EB001B"/>
<path d="M38.8317 11.8327C38.8317 18.3246 33.5794 23.577 27.0874 23.577C24.3471 23.577 21.8352 22.6309 19.8452 21.0649C22.5855 18.9119 24.3145 15.5843 24.3145 11.8327C24.3145 8.08108 22.5528 4.75346 19.8452 2.60029C21.835 1.03441 24.3471 0.0883789 27.0874 0.0883789C33.5794 0.0883789 38.8317 5.3733 38.8317 11.8327Z" fill="#F79E1B"/>
</g>
<defs>
<clipPath id="clip0_545_269">
<rect width="38.0435" height="29.5729" fill="white" transform="translate(0.82605 0.0883789)"/>
</clipPath>
</defs>
</svg>
