<svg width="25" height="24" viewBox="0 0 25 24" fill="none" xmlns="http://www.w3.org/2000/svg">
<g clip-path="url(#clip0_548_911)">
<path d="M20.8595 1.8682C19.5532 0.606054 17.1918 0.0649414 14.1709 0.0649414H5.40343C5.10452 0.0649023 4.81541 0.155276 4.58809 0.319806C4.36078 0.484337 4.21018 0.712225 4.16339 0.962478L0.512769 20.589C0.440207 20.976 0.793738 21.3265 1.25649 21.3265H6.66924L8.02861 14.0175L7.98643 14.2464C8.08327 13.7298 8.60452 13.3487 9.22177 13.3487H11.7939C16.8468 13.3487 20.8034 11.6089 21.9591 6.57617C21.9934 6.42733 22.0231 6.28245 22.0488 6.14092C21.903 6.07543 21.903 6.07543 22.0488 6.14092C22.393 4.28076 22.0465 3.01456 20.8595 1.8682Z" fill="#27346A"/>
<path d="M10.0997 5.47082C10.2477 5.411 10.4095 5.38004 10.5735 5.38023H17.447C18.261 5.38023 19.0201 5.42513 19.7139 5.51978C19.908 5.54603 20.1011 5.57736 20.293 5.61371C20.5649 5.66458 20.8337 5.72683 21.0983 5.80023C21.4394 5.89678 21.757 6.00923 22.0489 6.14092C22.393 4.28004 22.0465 3.01456 20.8595 1.8682C19.5525 0.606054 17.1918 0.0649414 14.1709 0.0649414H5.40268C4.78533 0.0649414 4.26014 0.445922 4.16339 0.962478L0.51277 20.5883C0.440207 20.9759 0.793739 21.3259 1.25574 21.3259H6.66924L9.48952 6.16539C9.51727 6.01638 9.58731 5.87532 9.6936 5.75433C9.7999 5.63334 9.93927 5.53605 10.0997 5.47082Z" fill="#27346A"/>
<path d="M21.9591 6.57613C20.8033 11.6082 16.8469 13.3487 11.7939 13.3487H9.22099C8.60374 13.3487 8.0824 13.7297 7.98649 14.2464L6.29533 23.3342C6.23215 23.6729 6.54115 23.9798 6.9454 23.9798H11.5082C11.7696 23.9797 12.0224 23.9006 12.2211 23.7567C12.4198 23.6128 12.5514 23.4135 12.5922 23.1946L12.6367 22.9975L13.4966 18.3775L13.5521 18.1221C13.5929 17.9033 13.7245 17.704 13.9232 17.5601C14.1219 17.4161 14.3746 17.337 14.636 17.3369H15.3189C19.7389 17.3369 23.1999 15.8148 24.2112 11.4124C24.6334 9.57271 24.415 8.03671 23.2982 6.95782C22.9595 6.63104 22.5388 6.36116 22.0488 6.14087C22.0223 6.28312 21.9935 6.42728 21.9591 6.57613Z" fill="#2790C3"/>
<path d="M20.8393 5.7321C20.6591 5.6875 20.4772 5.64801 20.2938 5.61369C20.1019 5.57792 19.9088 5.54681 19.7147 5.52039C19.0202 5.42511 18.2616 5.38013 17.4469 5.38013H10.5742C10.4102 5.3799 10.2483 5.41111 10.1005 5.47144C9.93982 5.53643 9.80026 5.63366 9.69392 5.75469C9.58757 5.87572 9.51764 6.0169 9.49018 6.16601L8.02937 14.0175L7.98718 14.2464C8.08328 13.7297 8.60453 13.3487 9.22187 13.3487H11.7947C16.8477 13.3487 20.8041 11.6089 21.9599 6.57616C21.9943 6.42731 22.0232 6.28307 22.0497 6.1409C21.7571 6.01004 21.4402 5.89668 21.0991 5.80084C21.013 5.77665 20.9264 5.75373 20.8394 5.7321" fill="#1F264F"/>
</g>
<defs>
<clipPath id="clip0_548_911">
<rect width="24" height="24" fill="white" transform="translate(0.5)"/>
</clipPath>
</defs>
</svg>
