<svg width="24" height="24" viewBox="0 0 24 24" fill="none" xmlns="http://www.w3.org/2000/svg">
<path d="M4 20.001C3.45 20.001 2.97933 19.8053 2.588 19.414C2.19667 19.0226 2.00067 18.5516 2 18.001V6.00098C2 5.45098 2.196 4.98031 2.588 4.58898C2.98 4.19764 3.45067 4.00164 4 4.00098H20C20.55 4.00098 21.021 4.19698 21.413 4.58898C21.805 4.98098 22.0007 5.45164 22 6.00098V18.001C22 18.551 21.8043 19.022 21.413 19.414C21.0217 19.806 20.5507 20.0016 20 20.001H4ZM12 13.001L4 8.00098V18.001H20V8.00098L12 13.001ZM12 11.001L20 6.00098H4L12 11.001ZM4 8.00098V6.00098V18.001V8.00098Z" fill="#FFD6CD"/>
</svg>
