<svg width="28" height="28" viewBox="0 0 28 28" fill="none" xmlns="http://www.w3.org/2000/svg">
<path d="M14 7.58447C14.7736 7.58447 15.5155 7.89176 16.0624 8.43874C16.6094 8.98573 16.9167 9.72759 16.9167 10.5011C16.9167 10.8842 16.8413 11.2634 16.6947 11.6173C16.5481 11.9712 16.3333 12.2927 16.0624 12.5635C15.7916 12.8344 15.4701 13.0492 15.1162 13.1958C14.7623 13.3424 14.3831 13.4178 14 13.4178C13.2265 13.4178 12.4846 13.1105 11.9376 12.5635C11.3907 12.0166 11.0834 11.2747 11.0834 10.5011C11.0834 9.72759 11.3907 8.98573 11.9376 8.43874C12.4846 7.89176 13.2265 7.58447 14 7.58447ZM14 2.33447C16.166 2.33447 18.2432 3.19489 19.7747 4.72643C21.3063 6.25798 22.1667 8.3352 22.1667 10.5011C22.1667 16.6261 14 25.6678 14 25.6678C14 25.6678 5.83337 16.6261 5.83337 10.5011C5.83337 8.3352 6.69379 6.25798 8.22534 4.72643C9.75688 3.19489 11.8341 2.33447 14 2.33447ZM14 4.66781C12.4529 4.66781 10.9692 5.28239 9.87525 6.37635C8.78129 7.47031 8.16671 8.95404 8.16671 10.5011C8.16671 11.6678 8.16671 14.0011 14 21.8295C19.8334 14.0011 19.8334 11.6678 19.8334 10.5011C19.8334 8.95404 19.2188 7.47031 18.1248 6.37635C17.0309 5.28239 15.5471 4.66781 14 4.66781Z" fill="#FFD6CD"/>
</svg>
