<svg width="24" height="24" viewBox="0 0 24 24" fill="none" xmlns="http://www.w3.org/2000/svg">
<path fill-rule="evenodd" clip-rule="evenodd" d="M5.73303 2.04378C6.95003 0.833785 8.95403 1.04879 9.97303 2.41078L11.235 4.09478C12.065 5.20278 11.991 6.75078 11.006 7.72978L10.768 7.96778C10.7412 8.06771 10.7384 8.17259 10.76 8.27378C10.823 8.68178 11.164 9.54578 12.592 10.9658C14.02 12.3858 14.89 12.7258 15.304 12.7898C15.4082 12.8119 15.5162 12.8089 15.619 12.7808L16.027 12.3748C16.903 11.5048 18.247 11.3418 19.331 11.9308L21.241 12.9708C22.878 13.8588 23.291 16.0828 21.951 17.4158L20.53 18.8278C20.082 19.2728 19.48 19.6438 18.746 19.7128C16.936 19.8818 12.719 19.6658 8.28603 15.2588C4.14903 11.1448 3.35503 7.55678 3.25403 5.78878C3.20403 4.89478 3.62603 4.13878 4.16403 3.60478L5.73303 2.04378ZM8.77303 3.30978C8.26603 2.63278 7.32203 2.57878 6.79003 3.10778L5.22003 4.66778C4.89003 4.99578 4.73203 5.35778 4.75203 5.70378C4.83203 7.10878 5.47203 10.3458 9.34403 14.1958C13.406 18.2338 17.157 18.3548 18.607 18.2188C18.903 18.1918 19.197 18.0378 19.472 17.7648L20.892 16.3518C21.47 15.7778 21.343 14.7318 20.525 14.2878L18.615 13.2488C18.087 12.9628 17.469 13.0568 17.085 13.4388L16.63 13.8918L16.1 13.3598C16.63 13.8918 16.628 13.8928 16.628 13.8928L16.627 13.8948L16.624 13.8978L16.617 13.9038L16.602 13.9178C16.5595 13.9566 16.514 13.992 16.466 14.0238C16.386 14.0768 16.28 14.1358 16.147 14.1848C15.877 14.2858 15.519 14.3398 15.077 14.2718C14.21 14.1388 13.061 13.5478 11.534 12.0298C10.008 10.5118 9.41203 9.36978 9.27803 8.50378C9.20903 8.06178 9.26403 7.70378 9.36603 7.43378C9.42259 7.28205 9.50293 7.14028 9.60403 7.01378L9.63603 6.97878L9.65003 6.96378L9.65603 6.95778L9.65903 6.95478L9.66103 6.95278L9.94903 6.66678C10.377 6.23978 10.437 5.53278 10.034 4.99378L8.77303 3.30978Z" fill="#FFD6CD"/>
</svg>
