<svg width="25" height="26" viewBox="0 0 25 26" fill="none" xmlns="http://www.w3.org/2000/svg">
<path d="M13.5734 7.07418L18.4483 11.8597M13.0814 9.35511L18.0458 14.1406M14.6915 13.2461L16.883 15.527M16.6594 7.43198L18.4483 9.35511M13.0814 10.4285L16.1227 7.43198M14.1548 11.6808L18.0458 7.96867M15.4518 13.0672L18.7614 9.8918M15.2282 16.0637L18.4483 12.7094M16.883 18.8813C17.2323 18.5146 17.9564 17.9421 17.9564 17.9421C17.9564 17.9421 18.3769 17.3339 18.6719 16.9135C18.967 16.493 18.9921 16.2848 19.1639 15.8401C19.4505 15.0981 19.6212 14.6222 19.6559 13.8275M16.6594 17.4502L16.883 18.613C16.883 18.613 16.8192 19.2629 16.6594 19.6416C16.3328 20.4154 15.1387 21.1623 15.1387 21.1623C15.1387 21.1623 14.821 20.8219 14.5573 20.4914C14.2598 20.1185 13.8494 19.8099 13.797 19.3733M11.0241 17.7632C10.9019 18.7588 10.7111 20.4914 10.7111 20.4914C10.7111 20.4914 11.8173 20.4937 12.4106 20.2678C12.9991 20.0436 13.6628 19.3733 13.6628 19.3733C13.6628 19.3733 14.1306 18.9887 14.289 18.613C14.4654 18.1945 14.6443 17.5108 14.4679 17.0924M10.4874 19.6416C10.1905 19.5369 9.72713 19.3733 9.72713 19.3733C9.72713 19.3733 9.14159 19.0696 8.7432 18.7919C8.33766 18.5092 8.02156 18.2895 7.66982 17.9421C7.32856 17.6052 7.19109 17.1056 6.99896 16.9135M9.10099 13.7828C9.61845 13.5289 10.5067 13.4395 11.0241 13.6933C11.368 13.8621 11.5031 14.0629 11.7397 14.3642C12.0533 14.7635 12.232 15.0272 12.3211 15.527C12.3763 15.8365 12.3211 16.3321 12.3211 16.3321C12.3211 16.3321 12.0398 16.9142 11.7397 17.1818C11.3426 17.5359 11.0095 17.616 10.4874 17.7185C10.0076 17.8127 9.70576 17.5803 9.23517 17.3607C8.96609 17.2352 8.58527 16.9627 8.29596 16.7346M7.17786 12.2175L11.9633 13.2461L12.3211 11.8597L10.2191 11.1888M5.43362 10.026V8.19229H11.2925V10.2049M5.61252 13.6039C5.61252 13.2895 5.61757 12.562 5.52307 12.2622M7.4462 8.05811C7.4462 8.05811 7.96821 7.403 8.38541 7.07418C8.69367 6.83123 8.87745 6.69902 9.23517 6.5375C9.6946 6.33005 10.4874 6.13498 10.4874 6.13498C10.4874 6.13498 11.2518 5.97355 11.7397 5.91136C12.1072 5.86451 12.2944 5.90706 12.6789 5.86663C13.2103 5.81076 13.5013 5.91961 14.0206 6.04553M12.6789 1.21535C19.6109 1.22849 25.2858 7.71902 24.3519 14.5878C23.5364 20.5856 18.7319 24.7735 12.6789 24.7849C6.61278 24.7964 1.77847 20.5987 0.961213 14.5878C0.0257539 7.70763 5.73541 1.20219 12.6789 1.21535ZM13.0814 11.8597C12.8285 11.4126 12.5721 11.2345 12.3211 10.7863C12.0264 10.2599 11.8594 9.94639 11.7397 9.35511C11.6115 8.72171 11.5135 8.30566 11.7397 7.70032C11.9441 7.15353 12.2056 6.8791 12.6789 6.5375C13.2164 6.14963 14.289 6.00081 14.289 6.00081C14.289 6.00081 15.4126 5.9078 16.1227 6.00081C16.8958 6.10208 17.3778 6.1353 18.0458 6.5375C18.7876 6.98415 19.0947 7.43894 19.5217 8.19229C19.9713 8.9855 20.0876 9.52281 20.1926 10.4285C20.3117 11.4558 20.2234 12.0648 19.9689 13.0672C19.7702 13.85 19.6364 14.3054 19.2086 14.9903C18.8413 15.5784 18.5906 15.9032 18.0458 16.3321C17.4628 16.7911 17.0732 17.0328 16.3463 17.1818C15.7817 17.2976 15.4404 17.2671 14.8704 17.1818C14.4598 17.1204 14.1984 17.126 13.8417 16.9135C13.4592 16.6855 13.3638 16.4968 13.2603 16.0637C13.1599 15.6435 13.2407 15.444 13.2603 14.9903C13.2799 14.5367 13.2872 14.2787 13.3498 13.8275C13.4109 13.3864 13.5689 13.1465 13.484 12.7094C13.4108 12.333 13.2622 12.1793 13.0814 11.8597ZM6.23865 13.0672C7.35769 12.526 8.61919 12.9769 9.05627 14.1406C9.41945 15.1075 9.24017 16.0128 8.38541 16.5557C7.49466 17.1214 6.37157 17.1586 5.74669 16.0637C5.13343 14.9892 5.12482 13.6059 6.23865 13.0672ZM4.62859 10.4285L5.0311 12.2175L10.7111 10.7863L10.2191 9.13149L4.62859 10.4285Z" stroke="#B22222" stroke-width="0.707772"/>
</svg>
