<svg width="25" height="25" viewBox="0 0 25 25" fill="none" xmlns="http://www.w3.org/2000/svg">
<path d="M13.5734 6.21481L18.4483 11.0003M13.0814 8.49574L18.0458 13.2812M14.6915 12.3867L16.883 14.6677M16.6594 6.5726L18.4483 8.49574M13.0814 9.56911L16.1227 6.5726M14.1548 10.8214L18.0458 7.10929M15.4518 12.2078L18.7614 9.03243M15.2282 15.2043L18.4483 11.85M16.883 18.022C17.2323 17.6552 17.9564 17.0828 17.9564 17.0828C17.9564 17.0828 18.3769 16.4746 18.6719 16.0541C18.967 15.6336 18.9921 15.4254 19.1639 14.9807C19.4505 14.2387 19.6212 13.7628 19.6559 12.9681M16.6594 16.5908L16.883 17.7536C16.883 17.7536 16.8192 18.4035 16.6594 18.7823C16.3328 19.556 15.1387 20.3029 15.1387 20.3029C15.1387 20.3029 14.821 19.9625 14.5573 19.632C14.2598 19.2592 13.8494 18.9506 13.797 18.5139M11.0241 16.9039C10.9019 17.8994 10.7111 19.632 10.7111 19.632C10.7111 19.632 11.8173 19.6344 12.4106 19.4084C12.9991 19.1843 13.6628 18.5139 13.6628 18.5139C13.6628 18.5139 14.1306 18.1294 14.289 17.7536C14.4654 17.3352 14.6443 16.6515 14.4679 16.233M10.4874 18.7823C10.1905 18.6775 9.72713 18.5139 9.72713 18.5139C9.72713 18.5139 9.14159 18.2102 8.7432 17.9325C8.33766 17.6499 8.02156 17.4301 7.66982 17.0828C7.32856 16.7458 7.19109 16.2462 6.99896 16.0541M9.10099 12.9234C9.61845 12.6696 10.5067 12.5801 11.0241 12.834C11.368 13.0027 11.5031 13.2036 11.7397 13.5048C12.0533 13.9041 12.232 14.1678 12.3211 14.6677C12.3763 14.9772 12.3211 15.4727 12.3211 15.4727C12.3211 15.4727 12.0398 16.0548 11.7397 16.3224C11.3426 16.6766 11.0095 16.7567 10.4874 16.8591C10.0076 16.9533 9.70576 16.7209 9.23517 16.5013C8.96609 16.3758 8.58527 16.1034 8.29596 15.8752M7.17786 11.3581L11.9633 12.3867L12.3211 11.0003L10.2191 10.3294M5.43362 9.1666V7.33291H11.2925V9.34549M5.61252 12.7445C5.61252 12.4301 5.61757 11.7026 5.52307 11.4028M7.4462 7.19874C7.4462 7.19874 7.96821 6.54362 8.38541 6.21481C8.69367 5.97185 8.87745 5.83964 9.23517 5.67812C9.6946 5.47067 10.4874 5.2756 10.4874 5.2756C10.4874 5.2756 11.2518 5.11418 11.7397 5.05198C12.1072 5.00513 12.2944 5.04768 12.6789 5.00726C13.2103 4.95139 13.5013 5.06024 14.0206 5.18616M12.6789 0.355977C19.6109 0.369113 25.2858 6.85965 24.3519 13.7285C23.5364 19.7263 18.7319 23.9141 12.6789 23.9256C6.61278 23.9371 1.77847 19.7393 0.961213 13.7285C0.0257539 6.84825 5.73541 0.342819 12.6789 0.355977ZM13.0814 11.0003C12.8285 10.5532 12.5721 10.3751 12.3211 9.92691C12.0264 9.40052 11.8594 9.08702 11.7397 8.49574C11.6115 7.86234 11.5135 7.44629 11.7397 6.84095C11.9441 6.29415 12.2056 6.01972 12.6789 5.67812C13.2164 5.29026 14.289 5.14143 14.289 5.14143C14.289 5.14143 15.4126 5.04842 16.1227 5.14143C16.8958 5.2427 17.3778 5.27593 18.0458 5.67812C18.7876 6.12478 19.0947 6.57956 19.5217 7.33291C19.9713 8.12612 20.0876 8.66344 20.1926 9.56911C20.3117 10.5964 20.2234 11.2054 19.9689 12.2078C19.7702 12.9906 19.6364 13.446 19.2086 14.131C18.8413 14.7191 18.5906 15.0438 18.0458 15.4727C17.4628 15.9317 17.0732 16.1734 16.3463 16.3224C15.7817 16.4382 15.4404 16.4077 14.8704 16.3224C14.4598 16.261 14.1984 16.2667 13.8417 16.0541C13.4592 15.8261 13.3638 15.6375 13.2603 15.2043C13.1599 14.7841 13.2407 14.5847 13.2603 14.131C13.2799 13.6773 13.2872 13.4193 13.3498 12.9681C13.4109 12.5271 13.5689 12.2872 13.484 11.85C13.4108 11.4736 13.2622 11.3199 13.0814 11.0003ZM6.23865 12.2078C7.35769 11.6667 8.61919 12.1176 9.05627 13.2812C9.41945 14.2481 9.24017 15.1535 8.38541 15.6963C7.49466 16.262 6.37157 16.2993 5.74669 15.2043C5.13343 14.1298 5.12482 12.7465 6.23865 12.2078ZM4.62859 9.56911L5.0311 11.3581L10.7111 9.92691L10.2191 8.27212L4.62859 9.56911Z" stroke="#B22222" stroke-width="0.707772"/>
</svg>
